<svg width="648" height="651" viewBox="0 0 648 651" fill="none" xmlns="http://www.w3.org/2000/svg">
<path d="M105.752 203.927C111.734 203.927 116.962 205.113 121.435 207.484C125.909 209.856 129.358 213.197 131.783 217.509C134.262 221.767 135.502 226.698 135.502 232.303C135.502 237.854 134.262 242.786 131.783 247.097C129.358 251.409 125.882 254.751 121.354 257.122C116.881 259.493 111.68 260.679 105.752 260.679H84.4898V203.927H105.752ZM104.862 248.714C110.09 248.714 114.159 247.286 117.07 244.43C119.98 241.573 121.435 237.531 121.435 232.303C121.435 227.075 119.98 223.006 117.07 220.096C114.159 217.185 110.09 215.73 104.862 215.73H98.3141V248.714H104.862ZM157.052 215.003V226.482H175.565V237.154H157.052V249.604H177.99V260.679H143.228V203.927H177.99V215.003H157.052ZM207.5 261.245C203.35 261.245 199.631 260.571 196.343 259.224C193.056 257.877 190.415 255.882 188.42 253.242C186.48 250.601 185.456 247.421 185.348 243.702H200.062C200.278 245.804 201.005 247.421 202.245 248.553C203.484 249.631 205.101 250.17 207.095 250.17C209.143 250.17 210.76 249.711 211.946 248.795C213.132 247.825 213.725 246.505 213.725 244.834C213.725 243.433 213.239 242.274 212.269 241.358C211.353 240.441 210.194 239.687 208.793 239.094C207.446 238.501 205.505 237.827 202.972 237.073C199.307 235.941 196.316 234.809 193.999 233.677C191.681 232.546 189.687 230.875 188.016 228.665C186.346 226.455 185.51 223.572 185.51 220.015C185.51 214.733 187.423 210.61 191.25 207.646C195.077 204.628 200.062 203.119 206.206 203.119C212.458 203.119 217.497 204.628 221.324 207.646C225.15 210.61 227.198 214.76 227.468 220.096H212.512C212.404 218.263 211.73 216.835 210.491 215.811C209.251 214.733 207.661 214.194 205.721 214.194C204.05 214.194 202.703 214.652 201.679 215.569C200.655 216.431 200.143 217.697 200.143 219.368C200.143 221.201 201.005 222.629 202.73 223.653C204.454 224.677 207.149 225.782 210.814 226.967C214.479 228.207 217.443 229.393 219.707 230.525C222.024 231.656 224.019 233.3 225.689 235.456C227.36 237.612 228.195 240.387 228.195 243.783C228.195 247.017 227.36 249.954 225.689 252.595C224.072 255.236 221.701 257.338 218.575 258.901C215.449 260.464 211.757 261.245 207.5 261.245ZM234.359 232.222C234.359 226.617 235.571 221.632 237.996 217.266C240.422 212.847 243.79 209.424 248.102 206.999C252.467 204.52 257.399 203.28 262.896 203.28C269.633 203.28 275.4 205.059 280.197 208.616C284.994 212.173 288.2 217.024 289.817 223.168H274.619C273.487 220.796 271.87 218.991 269.768 217.751C267.72 216.512 265.376 215.892 262.735 215.892C258.477 215.892 255.028 217.374 252.387 220.338C249.746 223.303 248.425 227.264 248.425 232.222C248.425 237.181 249.746 241.142 252.387 244.106C255.028 247.071 258.477 248.553 262.735 248.553C265.376 248.553 267.72 247.933 269.768 246.693C271.87 245.454 273.487 243.648 274.619 241.277H289.817C288.2 247.421 284.994 252.271 280.197 255.829C275.4 259.332 269.633 261.083 262.896 261.083C257.399 261.083 252.467 259.871 248.102 257.445C243.79 254.966 240.422 251.544 237.996 247.178C235.571 242.813 234.359 237.827 234.359 232.222ZM311.865 203.927V237.881C311.865 241.277 312.7 243.891 314.371 245.723C316.042 247.556 318.494 248.472 321.728 248.472C324.961 248.472 327.441 247.556 329.165 245.723C330.89 243.891 331.752 241.277 331.752 237.881V203.927H345.576V237.8C345.576 242.867 344.499 247.151 342.343 250.655C340.187 254.158 337.277 256.799 333.612 258.577C330.001 260.356 325.958 261.245 321.485 261.245C317.012 261.245 312.997 260.383 309.439 258.658C305.936 256.88 303.161 254.239 301.113 250.735C299.065 247.178 298.04 242.867 298.04 237.8V203.927H311.865ZM389.642 231.576C392.93 232.276 395.571 233.92 397.565 236.507C399.559 239.04 400.556 241.95 400.556 245.238C400.556 249.981 398.886 253.754 395.544 256.556C392.256 259.305 387.648 260.679 381.72 260.679H355.284V203.927H380.831C386.597 203.927 391.098 205.247 394.331 207.888C397.619 210.529 399.263 214.113 399.263 218.641C399.263 221.982 398.374 224.758 396.595 226.967C394.87 229.177 392.553 230.713 389.642 231.576ZM369.108 226.887H378.163C380.426 226.887 382.151 226.402 383.337 225.431C384.576 224.407 385.196 222.925 385.196 220.985C385.196 219.045 384.576 217.563 383.337 216.539C382.151 215.515 380.426 215.003 378.163 215.003H369.108V226.887ZM379.295 249.523C381.612 249.523 383.391 249.011 384.63 247.987C385.924 246.909 386.57 245.373 386.57 243.379C386.57 241.385 385.897 239.822 384.549 238.69C383.256 237.558 381.45 236.992 379.133 236.992H369.108V249.523H379.295ZM437.516 260.679L425.713 239.256H422.399V260.679H408.574V203.927H431.776C436.25 203.927 440.049 204.709 443.175 206.272C446.355 207.834 448.727 209.99 450.29 212.739C451.853 215.434 452.634 218.452 452.634 221.793C452.634 225.566 451.556 228.935 449.4 231.899C447.298 234.863 444.172 236.965 440.023 238.205L453.119 260.679H437.516ZM422.399 229.474H430.968C433.501 229.474 435.387 228.854 436.627 227.614C437.921 226.375 438.567 224.623 438.567 222.359C438.567 220.204 437.921 218.506 436.627 217.266C435.387 216.027 433.501 215.407 430.968 215.407H422.399V229.474ZM496.641 250.655H475.46L472.064 260.679H457.593L478.128 203.927H494.135L514.669 260.679H500.036L496.641 250.655ZM493.084 239.983L486.05 219.206L479.098 239.983H493.084ZM539.108 201.906L537.491 240.63H525.769L524.152 201.906H539.108ZM531.832 261.326C529.407 261.326 527.413 260.625 525.85 259.224C524.341 257.769 523.586 255.99 523.586 253.888C523.586 251.733 524.341 249.927 525.85 248.472C527.413 247.017 529.407 246.289 531.832 246.289C534.204 246.289 536.144 247.017 537.653 248.472C539.216 249.927 539.998 251.733 539.998 253.888C539.998 255.99 539.216 257.769 537.653 259.224C536.144 260.625 534.204 261.326 531.832 261.326Z" fill="white"/>
<path d="M124.702 337.242H100.957L97.1506 348.48H80.9276L103.948 284.857H121.893L144.913 348.48H128.509L124.702 337.242ZM120.715 325.279L112.83 301.987L105.035 325.279H120.715ZM200.407 305.34C200.407 309.026 199.561 312.409 197.869 315.491C196.177 318.512 193.579 320.959 190.075 322.832C186.57 324.705 182.22 325.641 177.024 325.641H167.417V348.48H151.919V284.857H177.024C182.099 284.857 186.389 285.733 189.894 287.486C193.398 289.238 196.026 291.655 197.778 294.736C199.531 297.818 200.407 301.352 200.407 305.34ZM175.846 313.315C178.806 313.315 181.012 312.621 182.462 311.231C183.912 309.841 184.637 307.878 184.637 305.34C184.637 302.802 183.912 300.839 182.462 299.449C181.012 298.059 178.806 297.364 175.846 297.364H167.417V313.315H175.846ZM240.921 348.48L227.689 324.463H223.973V348.48H208.475V284.857H234.486C239.501 284.857 243.761 285.733 247.265 287.486C250.83 289.238 253.488 291.655 255.24 294.736C256.993 297.757 257.869 301.141 257.869 304.887C257.869 309.116 256.66 312.893 254.244 316.216C251.887 319.539 248.383 321.895 243.73 323.285L258.413 348.48H240.921ZM223.973 313.497H233.58C236.419 313.497 238.534 312.802 239.924 311.412C241.374 310.023 242.099 308.059 242.099 305.521C242.099 303.104 241.374 301.201 239.924 299.811C238.534 298.422 236.419 297.727 233.58 297.727H223.973V313.497ZM283.095 297.274V310.143H303.85V322.107H283.095V336.064H306.569V348.48H267.597V284.857H306.569V297.274H283.095ZM373.546 348.48H358.048L332.128 309.237V348.48H316.63V284.857H332.128L358.048 324.282V284.857H373.546V348.48ZM408.616 284.857C415.323 284.857 421.184 286.187 426.199 288.845C431.214 291.504 435.08 295.25 437.799 300.083C440.579 304.857 441.968 310.385 441.968 316.669C441.968 322.892 440.579 328.421 437.799 333.254C435.08 338.088 431.183 341.834 426.108 344.492C421.093 347.151 415.262 348.48 408.616 348.48H384.78V284.857H408.616ZM407.619 335.067C413.48 335.067 418.042 333.466 421.305 330.263C424.567 327.061 426.199 322.53 426.199 316.669C426.199 310.808 424.567 306.246 421.305 302.984C418.042 299.721 413.48 298.089 407.619 298.089H400.278V335.067H407.619ZM490.235 337.242H466.49L462.683 348.48H446.46L469.481 284.857H487.425L510.446 348.48H494.041L490.235 337.242ZM486.247 325.279L478.362 301.987L470.568 325.279H486.247ZM537.844 282.592L536.031 326.004H522.89L521.077 282.592H537.844ZM529.687 349.205C526.968 349.205 524.733 348.42 522.98 346.849C521.289 345.218 520.443 343.224 520.443 340.867C520.443 338.45 521.289 336.426 522.98 334.795C524.733 333.164 526.968 332.348 529.687 332.348C532.346 332.348 534.521 333.164 536.212 334.795C537.965 336.426 538.841 338.45 538.841 340.867C538.841 343.224 537.965 345.218 536.212 346.849C534.521 348.42 532.346 349.205 529.687 349.205Z" fill="white"/>
<path d="M102.561 371.611C107.817 371.611 112.41 372.653 116.34 374.736C120.27 376.82 123.3 379.755 125.431 383.543C127.609 387.284 128.698 391.617 128.698 396.541C128.698 401.418 127.609 405.751 125.431 409.539C123.3 413.327 120.246 416.263 116.269 418.346C112.339 420.429 107.769 421.471 102.561 421.471H83.8811V371.611H102.561ZM101.78 410.959C106.373 410.959 109.948 409.705 112.504 407.195C115.061 404.685 116.34 401.134 116.34 396.541C116.34 391.948 115.061 388.373 112.504 385.816C109.948 383.259 106.373 381.981 101.78 381.981H96.0265V410.959H101.78ZM147.631 371.611V421.471H135.486V371.611H147.631ZM203.239 371.611L185.553 421.471H170.354L152.668 371.611H165.595L177.954 409.255L190.383 371.611H203.239ZM220.46 371.611V421.471H208.315V371.611H220.46ZM254.689 421.471L244.319 402.649H241.407V421.471H229.262V371.611H249.646C253.576 371.611 256.915 372.298 259.661 373.671C262.455 375.044 264.538 376.938 265.911 379.353C267.284 381.72 267.971 384.372 267.971 387.308C267.971 390.622 267.024 393.582 265.13 396.186C263.283 398.79 260.537 400.637 256.891 401.726L268.397 421.471H254.689ZM241.407 394.055H248.936C251.161 394.055 252.819 393.511 253.908 392.422C255.044 391.333 255.612 389.794 255.612 387.805C255.612 385.911 255.044 384.419 253.908 383.33C252.819 382.241 251.161 381.697 248.936 381.697H241.407V394.055ZM311.463 371.611V381.342H298.252V421.471H286.107V381.342H272.896V371.611H311.463ZM348.597 412.664H329.988L327.005 421.471H314.291L332.332 371.611H346.395L364.435 421.471H351.58L348.597 412.664ZM345.472 403.289L339.292 385.035L333.184 403.289H345.472ZM415.518 391.498V401.584H384.267V391.498H415.518ZM459.27 421.968C455.624 421.968 452.357 421.376 449.468 420.193C446.58 419.009 444.26 417.257 442.508 414.937C440.803 412.617 439.903 409.823 439.809 406.556H452.735C452.925 408.402 453.564 409.823 454.653 410.817C455.742 411.764 457.163 412.238 458.915 412.238C460.714 412.238 462.134 411.835 463.176 411.03C464.218 410.178 464.739 409.018 464.739 407.55C464.739 406.319 464.313 405.301 463.46 404.496C462.655 403.691 461.637 403.028 460.406 402.507C459.222 401.986 457.518 401.395 455.292 400.732C452.072 399.737 449.444 398.743 447.408 397.749C445.372 396.754 443.62 395.286 442.152 393.345C440.685 391.404 439.951 388.87 439.951 385.745C439.951 381.105 441.632 377.483 444.994 374.878C448.355 372.227 452.735 370.901 458.133 370.901C463.626 370.901 468.053 372.227 471.415 374.878C474.777 377.483 476.576 381.129 476.813 385.816H463.673C463.579 384.206 462.987 382.952 461.898 382.052C460.809 381.105 459.412 380.631 457.707 380.631C456.239 380.631 455.055 381.034 454.156 381.839C453.256 382.596 452.806 383.709 452.806 385.177C452.806 386.787 453.564 388.042 455.079 388.941C456.594 389.841 458.962 390.812 462.182 391.853C465.402 392.943 468.006 393.984 469.995 394.979C472.031 395.973 473.783 397.417 475.25 399.311C476.718 401.205 477.452 403.644 477.452 406.627C477.452 409.468 476.718 412.048 475.25 414.369C473.83 416.689 471.747 418.535 469 419.909C466.254 421.282 463.01 421.968 459.27 421.968ZM497.072 381.342V391.427H513.337V400.803H497.072V411.741H515.468V421.471H484.927V371.611H515.468V381.342H497.072ZM539.333 369.836L537.913 403.857H527.614L526.194 369.836H539.333ZM532.941 422.039C530.81 422.039 529.058 421.424 527.685 420.193C526.359 418.914 525.696 417.352 525.696 415.505C525.696 413.611 526.359 412.025 527.685 410.746C529.058 409.468 530.81 408.829 532.941 408.829C535.025 408.829 536.729 409.468 538.055 410.746C539.428 412.025 540.115 413.611 540.115 415.505C540.115 417.352 539.428 418.914 538.055 420.193C536.729 421.424 535.025 422.039 532.941 422.039Z" fill="white"/>
<circle cx="8.69256" cy="8.69256" r="8.69256" transform="matrix(-0.573128 -0.819466 -0.819466 0.573128 601.924 324.027)" fill="white"/>
<circle cx="4.34628" cy="4.34628" r="4.34628" transform="matrix(-0.573128 -0.819466 -0.819466 0.573128 223.561 504.782)" fill="white"/>
<circle cx="618.597" cy="353.831" r="4.34628" transform="rotate(55.0313 618.597 353.831)" fill="white"/>
<path d="M433.777 496.232C433.922 495.865 434.441 495.865 434.586 496.232L438.415 505.941C438.459 506.053 438.548 506.141 438.66 506.186L448.368 510.015C448.735 510.159 448.735 510.679 448.368 510.823L438.66 514.652C438.548 514.697 438.459 514.785 438.415 514.897L434.586 524.606C434.441 524.973 433.922 524.973 433.777 524.606L429.948 514.897C429.904 514.785 429.815 514.697 429.703 514.652L419.995 510.823C419.628 510.679 419.628 510.159 419.995 510.015L429.703 506.186C429.815 506.141 429.904 506.053 429.948 505.941L433.777 496.232Z" fill="white"/>
<circle cx="27.2386" cy="287.055" r="8.69256" transform="rotate(55.0313 27.2386 287.055)" fill="white"/>
<circle cx="207.59" cy="123.392" r="4.34628" transform="rotate(55.0313 207.59 123.392)" fill="white"/>
<path d="M264.559 119.196C264.704 118.829 265.223 118.829 265.368 119.196L269.197 128.905C269.241 129.017 269.33 129.105 269.442 129.15L279.151 132.979C279.517 133.123 279.517 133.643 279.151 133.787L269.442 137.616C269.33 137.66 269.241 137.749 269.197 137.861L265.368 147.57C265.223 147.937 264.704 147.937 264.559 147.57L260.73 137.861C260.686 137.749 260.598 137.66 260.485 137.616L250.777 133.787C250.41 133.643 250.41 133.123 250.777 132.979L260.485 129.15C260.598 129.105 260.686 129.017 260.73 128.905L264.559 119.196Z" fill="white"/>
</svg>
