<svg width="1440" height="1024" viewBox="0 0 1440 1024" fill="none" xmlns="http://www.w3.org/2000/svg">
<path d="M325.78 994.019C479.346 921.157 373.96 814.617 500.123 629.758C599.455 484.215 896.217 571.841 837.621 258.418C806.882 94.0003 847.577 -50.9866 918.621 -143.582C1384.19 -750.392 7565.21 3969.46 1612.29 -885.254C-3150.05 -4769.02 -1460.82 -1167.68 -20.9105 1118.46L325.78 994.019Z" fill="#2EB7FA"/>
<path d="M232.78 890.23C386.346 817.368 280.96 710.828 407.123 525.969C506.455 380.426 757.544 449.322 728.576 131.787C715.576 -10.7129 837.009 -80.6875 908.053 -173.283C1373.63 -780.093 7472.21 3865.67 1519.29 -989.043C-3243.05 -4872.81 -1553.82 -1271.47 -113.911 1014.67L232.78 890.23Z" fill="#1CB0FC"/>
<path d="M90.78 857.949C244.346 785.087 138.96 678.547 265.123 493.688C364.455 348.145 580.494 422.151 655.932 112.35C690.008 -27.5883 718.232 -99.101 766.053 -205.564C1338.06 -1479.03 7330.21 3833.39 1377.29 -1021.32C-3385.05 -4905.09 -1695.82 -1303.75 -255.911 982.394L90.78 857.949Z" fill="#00A9FF"/>
<path d="M-268.748 306.616C-268.748 306.616 -4.56626 1023.89 33.8655 553.272C72.2973 82.6505 338.575 453.208 480.949 4.7594C623.324 -443.689 982.038 -201.663 943.831 -563.135C905.624 -924.606 641.217 -809.79 641.217 -809.79L-268.748 306.616Z" fill="#00A0FF"/>
</svg>
