<svg width="190" height="20" viewBox="0 0 190 20" fill="none" xmlns="http://www.w3.org/2000/svg">
<path d="M8.13169 12.3468L4.52076 11.4938C3.08019 11.1526 2.09453 10.6314 1.56379 9.93004C1.052 9.22871 0.796109 8.22409 0.796109 6.9162C0.796109 4.8501 1.33633 3.3337 2.41676 2.367C3.51615 1.38134 5.21262 0.888512 7.50617 0.888512C8.45392 0.888512 9.29742 0.926422 10.0367 1.00224C10.7759 1.07806 11.4583 1.21075 12.0838 1.4003V5.35241C10.6432 5.106 9.64809 4.96383 9.09839 4.92592C8.56765 4.88801 8.00848 4.86906 7.42088 4.86906C6.62477 4.86906 6.04664 5.00174 5.6865 5.26711C5.32635 5.53248 5.14628 5.97793 5.14628 6.60344C5.14628 6.90672 5.20314 7.14366 5.31687 7.31425C5.4306 7.46589 5.64859 7.57962 5.97082 7.65544L9.38272 8.45155C10.3684 8.67901 11.0792 8.90647 11.5152 9.13393C11.9511 9.34244 12.3018 9.61728 12.5672 9.95847C12.8704 10.3186 13.0884 10.783 13.2211 11.3517C13.3727 11.9203 13.4486 12.6122 13.4486 13.4272C13.4486 15.4933 12.8989 16.9908 11.7995 17.9196C10.7001 18.8294 8.99414 19.2843 6.68163 19.2843C5.50642 19.2843 4.38808 19.2085 3.3266 19.0569C2.26512 18.9242 1.44058 18.7536 0.852974 18.5451V14.3655C1.61117 14.6119 2.51154 14.8109 3.55406 14.9626C4.59658 15.0953 5.63911 15.1616 6.68163 15.1616C7.51565 15.1616 8.09378 15.0574 8.41601 14.8489C8.73825 14.6404 8.89937 14.2233 8.89937 13.5978C8.89937 13.1998 8.8425 12.9154 8.72877 12.7449C8.634 12.5553 8.43497 12.4226 8.13169 12.3468ZM28.127 14.8773V19H15.8442V1.17284H27.8712V5.15338H20.2513V8.11036H26.8192V11.8066H20.2513V14.8773H28.127ZM46.1499 1.17284V19H41.9419L34.8906 8.70744V19H30.7679V1.17284H34.9475L42.0272 11.8634V1.17284H46.1499ZM52.6245 19H47.99L54.5864 1.17284H59.164L65.5897 19H60.9837L60.0454 16.0146H53.5628L52.6245 19ZM56.7757 5.55144C56.624 6.08218 56.4534 6.65083 56.2639 7.25739C56.0933 7.84499 55.7995 8.8117 55.3825 10.1575L54.6432 12.5174H58.9365L58.1973 10.1575C57.9509 9.43721 57.7044 8.67901 57.458 7.8829C57.2116 7.06784 56.9842 6.29068 56.7757 5.55144ZM71.9084 1.17284V19H67.5014V1.17284H71.9084ZM87.558 11.5223L83.2363 10.4987C82.0421 10.2144 81.1797 9.73101 80.6489 9.04863C80.1182 8.3473 79.8528 7.38059 79.8528 6.14852C79.8528 4.3478 80.3646 3.02095 81.3882 2.16797C82.4307 1.315 84.0419 0.888512 86.2217 0.888512C87.1315 0.888512 87.9466 0.935899 88.6669 1.03067C89.4061 1.10649 90.0885 1.2297 90.714 1.4003V3.5896C89.9179 3.40005 89.1597 3.26736 88.4394 3.19154C87.7191 3.11572 86.9704 3.07781 86.1933 3.07781C84.7337 3.07781 83.7102 3.2958 83.1226 3.73176C82.535 4.14877 82.2412 4.89749 82.2412 5.97793C82.2412 6.6603 82.3738 7.18157 82.6392 7.54171C82.9235 7.8829 83.3785 8.12932 84.004 8.28096L88.2973 9.30453C89.8137 9.66467 90.8183 10.1765 91.3111 10.8399C91.8229 11.4843 92.0788 12.489 92.0788 13.8537C92.0788 15.8061 91.567 17.1898 90.5434 18.0049C89.5388 18.8199 87.9371 19.2275 85.7384 19.2275C84.5821 19.2275 83.4638 19.1516 82.3833 19C81.3218 18.8484 80.4783 18.6493 79.8528 18.4029V16.1283C80.7437 16.3937 81.6915 16.6022 82.6961 16.7538C83.7007 16.8865 84.7148 16.9529 85.7384 16.9529C87.16 16.9529 88.1551 16.7444 88.7238 16.3273C89.2924 15.9103 89.5767 15.1048 89.5767 13.9106C89.5767 13.1713 89.4346 12.6406 89.1503 12.3184C88.8849 11.9772 88.3541 11.7118 87.558 11.5223ZM102.397 9.87317L109.96 19H106.833L100.322 11.0105H97.9901V19H95.5733V1.17284H97.9901V8.87804H100.322L106.719 1.17284H109.676L102.397 9.87317ZM115.024 1.17284V19H112.607V1.17284H115.024ZM130.591 16.7254V19H119.673V1.17284H122.09V16.7254H130.591ZM144.571 16.7254V19H133.653V1.17284H136.07V16.7254H144.571ZM154.026 9.04863V10.8683H144.956V9.04863H154.026ZM169.854 11.8919V1.17284H172.271V11.8919C172.271 14.3939 171.683 16.242 170.508 17.4362C169.352 18.6304 167.551 19.2275 165.106 19.2275C162.642 19.2275 160.841 18.6493 159.704 17.4931C158.586 16.3179 158.026 14.4508 158.026 11.8919V1.17284H160.443V11.8919C160.443 13.7684 160.784 15.0858 161.467 15.844C162.168 16.5832 163.381 16.9529 165.106 16.9529C166.85 16.9529 168.073 16.5832 168.774 15.844C169.494 15.0858 169.854 13.7684 169.854 11.8919ZM179.175 13.2282V19H176.758V1.17284H182.814C185.335 1.17284 187.136 1.62776 188.216 2.53759C189.316 3.44743 189.865 4.9354 189.865 7.00149C189.865 9.1055 189.297 10.6693 188.159 11.6929C187.022 12.7164 185.269 13.2282 182.899 13.2282H179.175ZM187.42 7.00149C187.42 5.6936 187.06 4.76481 186.34 4.21511C185.638 3.64646 184.463 3.36214 182.814 3.36214H179.175V11.0958H182.814C184.463 11.0958 185.638 10.7735 186.34 10.1291C187.06 9.4846 187.42 8.44207 187.42 7.00149Z" fill="white"/>
</svg>
